<?xml version="1.0" encoding="UTF-8"?>
<svg xmlns="http://www.w3.org/2000/svg" xmlns:xlink="http://www.w3.org/1999/xlink" width="1280" height="720" viewBox="0 0 1280 720">
<defs>
<g>
<g id="glyph-0-0">
<path d="M 0.640625 -0.28125 L 0.640625 -3.9375 L 0.15625 -3.9375 L 0.15625 -4.21875 L 1.140625 -4.21875 L 1.140625 -2.4375 C 1.234375 -2.613281 1.351562 -2.742188 1.5 -2.828125 C 1.65625 -2.921875 1.847656 -2.96875 2.078125 -2.96875 C 2.429688 -2.96875 2.71875 -2.828125 2.9375 -2.546875 C 3.164062 -2.265625 3.28125 -1.894531 3.28125 -1.4375 C 3.28125 -0.988281 3.164062 -0.625 2.9375 -0.34375 C 2.71875 -0.0625 2.429688 0.078125 2.078125 0.078125 C 1.847656 0.078125 1.65625 0.0351562 1.5 -0.046875 C 1.351562 -0.128906 1.234375 -0.265625 1.140625 -0.453125 L 1.140625 0 L 0.15625 0 L 0.15625 -0.28125 Z M 1.140625 -1.296875 C 1.140625 -0.953125 1.207031 -0.6875 1.34375 -0.5 C 1.476562 -0.320312 1.671875 -0.234375 1.921875 -0.234375 C 2.171875 -0.234375 2.363281 -0.332031 2.5 -0.53125 C 2.632812 -0.738281 2.703125 -1.039062 2.703125 -1.4375 C 2.703125 -1.84375 2.632812 -2.144531 2.5 -2.34375 C 2.363281 -2.550781 2.171875 -2.65625 1.921875 -2.65625 C 1.671875 -2.65625 1.476562 -2.5625 1.34375 -2.375 C 1.207031 -2.195312 1.140625 -1.9375 1.140625 -1.59375 Z "/>
</g>
<g id="glyph-0-1">
<path d="M 1.140625 -0.28125 L 1.609375 -0.28125 L 1.609375 0 L 0.15625 0 L 0.15625 -0.28125 L 0.640625 -0.28125 L 0.640625 -3.9375 L 0.15625 -3.9375 L 0.15625 -4.21875 L 1.140625 -4.21875 Z "/>
</g>
<g id="glyph-0-2">
<path d="M 2.21875 -0.90625 L 2.21875 -1.515625 L 1.5625 -1.515625 C 1.320312 -1.515625 1.140625 -1.460938 1.015625 -1.359375 C 0.890625 -1.253906 0.828125 -1.085938 0.828125 -0.859375 C 0.828125 -0.660156 0.890625 -0.503906 1.015625 -0.390625 C 1.140625 -0.273438 1.304688 -0.21875 1.515625 -0.21875 C 1.722656 -0.21875 1.890625 -0.28125 2.015625 -0.40625 C 2.148438 -0.53125 2.21875 -0.695312 2.21875 -0.90625 Z M 2.71875 -1.796875 L 2.71875 -0.28125 L 3.15625 -0.28125 L 3.15625 0 L 2.21875 0 L 2.21875 -0.3125 C 2.101562 -0.175781 1.972656 -0.078125 1.828125 -0.015625 C 1.679688 0.046875 1.515625 0.078125 1.328125 0.078125 C 1.003906 0.078125 0.75 -0.00390625 0.5625 -0.171875 C 0.375 -0.347656 0.28125 -0.578125 0.28125 -0.859375 C 0.28125 -1.160156 0.382812 -1.394531 0.59375 -1.5625 C 0.8125 -1.726562 1.117188 -1.8125 1.515625 -1.8125 L 2.21875 -1.8125 L 2.21875 -2 C 2.21875 -2.21875 2.148438 -2.390625 2.015625 -2.515625 C 1.878906 -2.640625 1.691406 -2.703125 1.453125 -2.703125 C 1.253906 -2.703125 1.09375 -2.65625 0.96875 -2.5625 C 0.851562 -2.46875 0.78125 -2.332031 0.75 -2.15625 L 0.5 -2.15625 L 0.5 -2.75 C 0.675781 -2.820312 0.84375 -2.875 1 -2.90625 C 1.164062 -2.945312 1.328125 -2.96875 1.484375 -2.96875 C 1.890625 -2.96875 2.195312 -2.867188 2.40625 -2.671875 C 2.613281 -2.472656 2.71875 -2.179688 2.71875 -1.796875 Z "/>
</g>
<g id="glyph-0-3">
<path d="M 2.859375 -0.859375 C 2.785156 -0.554688 2.648438 -0.320312 2.453125 -0.15625 C 2.253906 0 1.992188 0.078125 1.671875 0.078125 C 1.253906 0.078125 0.914062 -0.0546875 0.65625 -0.328125 C 0.40625 -0.609375 0.28125 -0.976562 0.28125 -1.4375 C 0.28125 -1.90625 0.40625 -2.273438 0.65625 -2.546875 C 0.914062 -2.828125 1.253906 -2.96875 1.671875 -2.96875 C 1.859375 -2.96875 2.039062 -2.945312 2.21875 -2.90625 C 2.394531 -2.863281 2.578125 -2.796875 2.765625 -2.703125 L 2.765625 -1.96875 L 2.46875 -1.96875 C 2.4375 -2.21875 2.351562 -2.398438 2.21875 -2.515625 C 2.09375 -2.640625 1.910156 -2.703125 1.671875 -2.703125 C 1.410156 -2.703125 1.207031 -2.59375 1.0625 -2.375 C 0.925781 -2.164062 0.859375 -1.851562 0.859375 -1.4375 C 0.859375 -1.019531 0.925781 -0.707031 1.0625 -0.5 C 1.195312 -0.289062 1.398438 -0.1875 1.671875 -0.1875 C 1.890625 -0.1875 2.0625 -0.242188 2.1875 -0.359375 C 2.320312 -0.472656 2.410156 -0.640625 2.453125 -0.859375 Z "/>
</g>
<g id="glyph-0-4">
<path d="M 1.59375 0 L 0.1875 0 L 0.1875 -0.28125 L 0.640625 -0.28125 L 0.640625 -3.9375 L 0.15625 -3.9375 L 0.15625 -4.21875 L 1.140625 -4.21875 L 1.140625 -1.46875 L 2.359375 -2.59375 L 1.9375 -2.59375 L 1.9375 -2.890625 L 3.25 -2.890625 L 3.25 -2.59375 L 2.75 -2.59375 L 1.890625 -1.796875 L 3 -0.28125 L 3.40625 -0.28125 L 3.40625 0 L 1.984375 0 L 1.984375 -0.28125 L 2.390625 -0.28125 L 1.53125 -1.46875 L 1.140625 -1.109375 L 1.140625 -0.28125 L 1.59375 -0.28125 Z "/>
</g>
<g id="glyph-0-5">
<path d="M 0.25 -1.703125 L 1.640625 -1.703125 L 1.640625 -1.28125 L 0.25 -1.28125 Z "/>
</g>
<g id="glyph-0-6">
<path d="M 1.671875 -0.1875 C 1.941406 -0.1875 2.144531 -0.289062 2.28125 -0.5 C 2.414062 -0.71875 2.484375 -1.03125 2.484375 -1.4375 C 2.484375 -1.851562 2.414062 -2.164062 2.28125 -2.375 C 2.144531 -2.59375 1.941406 -2.703125 1.671875 -2.703125 C 1.398438 -2.703125 1.195312 -2.59375 1.0625 -2.375 C 0.925781 -2.164062 0.859375 -1.851562 0.859375 -1.4375 C 0.859375 -1.03125 0.925781 -0.71875 1.0625 -0.5 C 1.207031 -0.289062 1.410156 -0.1875 1.671875 -0.1875 Z M 1.671875 0.078125 C 1.253906 0.078125 0.914062 -0.0546875 0.65625 -0.328125 C 0.40625 -0.609375 0.28125 -0.976562 0.28125 -1.4375 C 0.28125 -1.90625 0.40625 -2.273438 0.65625 -2.546875 C 0.914062 -2.828125 1.253906 -2.96875 1.671875 -2.96875 C 2.097656 -2.96875 2.4375 -2.828125 2.6875 -2.546875 C 2.9375 -2.273438 3.0625 -1.90625 3.0625 -1.4375 C 3.0625 -0.976562 2.9375 -0.609375 2.6875 -0.328125 C 2.4375 -0.0546875 2.097656 0.078125 1.671875 0.078125 Z "/>
</g>
<g id="glyph-0-7">
<path d="M 1.625 -1.765625 L 2.21875 -2.59375 L 1.84375 -2.59375 L 1.84375 -2.890625 L 2.953125 -2.890625 L 2.953125 -2.59375 L 2.5625 -2.59375 L 1.796875 -1.53125 L 2.6875 -0.28125 L 3.0625 -0.28125 L 3.0625 0 L 1.734375 0 L 1.734375 -0.28125 L 2.109375 -0.28125 L 1.46875 -1.15625 L 0.84375 -0.28125 L 1.21875 -0.28125 L 1.21875 0 L 0.125 0 L 0.125 -0.28125 L 0.5 -0.28125 L 1.296875 -1.390625 L 0.421875 -2.59375 L 0.0625 -2.59375 L 0.0625 -2.890625 L 1.359375 -2.890625 L 1.359375 -2.59375 L 1.015625 -2.59375 Z "/>
</g>
</g>
</defs>
<g fill="rgb(100%, 100%, 100%)" fill-opacity="1">
<use xlink:href="#glyph-0-0" x="30" y="25.157227"/>
<use xlink:href="#glyph-0-1" x="34" y="25.157227"/>
<use xlink:href="#glyph-0-2" x="36" y="25.157227"/>
<use xlink:href="#glyph-0-3" x="39" y="25.157227"/>
<use xlink:href="#glyph-0-4" x="42" y="25.157227"/>
<use xlink:href="#glyph-0-5" x="45" y="25.157227"/>
<use xlink:href="#glyph-0-0" x="47" y="25.157227"/>
<use xlink:href="#glyph-0-6" x="51" y="25.157227"/>
<use xlink:href="#glyph-0-7" x="54" y="25.157227"/>
</g>
</svg>
