<svg xmlns="http://www.w3.org/2000/svg" width="512" height="512" viewBox="0 0 512 512">
<rect width="512" height="512" rx="96" fill="#0b0e14"/>
<line x1="320.0" y1="256.0" x2="260.0" y2="359.9" stroke="#334155" stroke-width="5"/>
<line x1="260.0" y1="359.9" x2="140.0" y2="359.9" stroke="#334155" stroke-width="5"/>
<line x1="140.0" y1="359.9" x2="80.0" y2="256.0" stroke="#334155" stroke-width="5"/>
<line x1="80.0" y1="256.0" x2="140.0" y2="152.1" stroke="#334155" stroke-width="5"/>
<line x1="140.0" y1="152.1" x2="260.0" y2="152.1" stroke="#334155" stroke-width="5"/>
<line x1="260.0" y1="152.1" x2="320.0" y2="256.0" stroke="#334155" stroke-width="5"/>
<line x1="320.0" y1="256.0" x2="80.0" y2="256.0" stroke="#334155" stroke-width="5"/>
<line x1="260.0" y1="359.9" x2="140.0" y2="152.1" stroke="#334155" stroke-width="5"/>
<line x1="140.0" y1="359.9" x2="260.0" y2="152.1" stroke="#334155" stroke-width="5"/>
<line x1="320.0" y1="256.0" x2="140.0" y2="359.9" stroke="#334155" stroke-width="5"/>
<polyline points="60,256 130,256 155,208 185,304 215,256 340,256" fill="none" stroke="#5eead4" stroke-width="9" stroke-linecap="round" stroke-linejoin="round"/>
<circle cx="320.0" cy="256.0" r="13" fill="#0b0e14" stroke="#5eead4" stroke-width="6"/>
<circle cx="260.0" cy="359.9" r="13" fill="#0b0e14" stroke="#5eead4" stroke-width="6"/>
<circle cx="140.0" cy="359.9" r="13" fill="#0b0e14" stroke="#5eead4" stroke-width="6"/>
<circle cx="80.0" cy="256.0" r="13" fill="#0b0e14" stroke="#5eead4" stroke-width="6"/>
<circle cx="140.0" cy="152.1" r="13" fill="#0b0e14" stroke="#5eead4" stroke-width="6"/>
<circle cx="260.0" cy="152.1" r="13" fill="#0b0e14" stroke="#5eead4" stroke-width="6"/>
<text x="400" y="238" font-family="monospace" font-size="44" font-weight="bold" fill="#f1f5f9">MEM</text>
<text x="400" y="288" font-family="monospace" font-size="44" font-weight="bold" fill="#5eead4">POLYGRAPH</text>
</svg>