<svg xmlns="http://www.w3.org/2000/svg" width="768" height="512" viewBox="0 0 768 512">
<rect width="768" height="512" rx="96" fill="#0b0e14"/>
<line x1="280.0" y1="256.0" x2="225.0" y2="351.3" stroke="#334155" stroke-width="5"/>
<line x1="225.0" y1="351.3" x2="115.0" y2="351.3" stroke="#334155" stroke-width="5"/>
<line x1="115.0" y1="351.3" x2="60.0" y2="256.0" stroke="#334155" stroke-width="5"/>
<line x1="60.0" y1="256.0" x2="115.0" y2="160.7" stroke="#334155" stroke-width="5"/>
<line x1="115.0" y1="160.7" x2="225.0" y2="160.7" stroke="#334155" stroke-width="5"/>
<line x1="225.0" y1="160.7" x2="280.0" y2="256.0" stroke="#334155" stroke-width="5"/>
<line x1="280.0" y1="256.0" x2="60.0" y2="256.0" stroke="#334155" stroke-width="5"/>
<line x1="225.0" y1="351.3" x2="115.0" y2="160.7" stroke="#334155" stroke-width="5"/>
<line x1="115.0" y1="351.3" x2="225.0" y2="160.7" stroke="#334155" stroke-width="5"/>
<line x1="280.0" y1="256.0" x2="115.0" y2="351.3" stroke="#334155" stroke-width="5"/>
<polyline points="50,256 110,256 132,212 158,300 184,256 290,256" fill="none" stroke="#5eead4" stroke-width="9" stroke-linecap="round" stroke-linejoin="round"/>
<circle cx="280.0" cy="256.0" r="12" fill="#0b0e14" stroke="#5eead4" stroke-width="6"/>
<circle cx="225.0" cy="351.3" r="12" fill="#0b0e14" stroke="#5eead4" stroke-width="6"/>
<circle cx="115.0" cy="351.3" r="12" fill="#0b0e14" stroke="#5eead4" stroke-width="6"/>
<circle cx="60.0" cy="256.0" r="12" fill="#0b0e14" stroke="#5eead4" stroke-width="6"/>
<circle cx="115.0" cy="160.7" r="12" fill="#0b0e14" stroke="#5eead4" stroke-width="6"/>
<circle cx="225.0" cy="160.7" r="12" fill="#0b0e14" stroke="#5eead4" stroke-width="6"/>
<text x="330" y="240" font-family="monospace" font-size="46" font-weight="bold" fill="#f1f5f9">MEM</text>
<text x="330" y="292" font-family="monospace" font-size="46" font-weight="bold" fill="#5eead4">POLYGRAPH</text>
</svg>